<?xml version="1.0" standalone="no"?>
<!DOCTYPE svg PUBLIC "-//W3C//DTD SVG 20010904//EN"
 "http://www.w3.org/TR/2001/REC-SVG-20010904/DTD/svg10.dtd">
<svg version="1.0" xmlns="http://www.w3.org/2000/svg"
 width="391.000000pt" height="129.000000pt" viewBox="0 0 391.000000 129.000000"
 preserveAspectRatio="xMidYMid meet">

<g transform="translate(0.000000,129.000000) scale(0.100000,-0.100000)"
fill="#4a00fd" stroke="none">
<path d="M100 840 c0 -198 3 -269 14 -293 17 -43 67 -84 116 -97 26 -7 588 -9
1752 -8 l1713 3 35 22 c20 12 46 40 58 61 21 38 22 50 22 306 l0 266 -1855 0
-1855 0 0 -260z m1660 1 c0 -146 -4 -251 -11 -268 -15 -40 -48 -73 -94 -94
-38 -17 -80 -19 -705 -19 -427 0 -678 4 -702 10 -21 6 -51 22 -68 37 -58 48
-60 59 -60 328 l0 245 820 0 820 0 0 -239z m356 94 c54 -22 85 -115 42 -123
-12 -2 -22 9 -33 34 -9 21 -21 42 -28 46 -22 14 -74 8 -89 -9 -42 -49 -25 -73
60 -84 46 -6 62 -14 85 -39 15 -16 27 -40 27 -51 0 -34 -29 -85 -57 -100 -35
-19 -103 -16 -135 5 -47 31 -64 111 -24 111 12 0 22 -12 30 -35 8 -26 19 -37
42 -43 45 -13 88 9 92 48 4 36 -18 55 -65 55 -45 0 -99 23 -112 48 -17 32 -13
77 10 106 37 47 92 58 155 31z m282 -5 c72 -44 80 -133 16 -189 -30 -27 -43
-31 -89 -31 l-55 0 0 -44 c0 -44 -19 -74 -40 -61 -17 10 -13 250 5 285 30 58
104 76 163 40z m339 -1 c112 -54 134 -201 43 -283 -78 -70 -169 -69 -241 3
-88 87 -66 226 43 280 54 27 100 27 155 0z m311 1 c46 -28 68 -82 53 -131 -6
-21 -24 -48 -39 -61 l-28 -23 28 -45 c25 -39 26 -46 14 -59 -19 -18 -35 -6
-71 55 -21 36 -31 44 -55 44 -29 0 -30 -2 -30 -44 0 -44 -19 -74 -40 -61 -14
8 -13 260 1 286 15 29 69 59 104 59 17 0 45 -9 63 -20z m552 -15 c23 -22 30
-38 30 -67 0 -31 -4 -38 -19 -38 -12 0 -21 10 -26 28 -10 41 -34 62 -72 62
-40 0 -76 -32 -71 -63 3 -22 22 -30 99 -42 60 -9 89 -39 89 -89 0 -80 -68
-128 -148 -107 -43 12 -65 32 -81 73 -22 59 19 81 43 23 19 -44 54 -61 98 -49
22 7 36 19 42 37 14 38 -9 58 -79 68 -86 12 -123 55 -104 124 22 77 136 100
199 40z m-233 9 c8 -21 -14 -34 -59 -34 l-37 0 -3 -142 c-3 -135 -4 -143 -23
-143 -19 0 -20 8 -23 142 l-3 142 -42 3 c-35 2 -43 7 -45 26 -3 22 -2 22 113
22 97 0 117 -3 122 -16z"/>
<path d="M277 1043 c-12 -11 -8 -288 4 -324 48 -142 242 -160 309 -29 50 98 0
212 -105 239 -51 13 -105 1 -150 -34 l-35 -26 0 90 c0 83 -5 102 -23 84z m240
-153 c46 -28 67 -65 67 -120 0 -112 -126 -177 -221 -115 -35 23 -66 98 -57
138 21 99 128 148 211 97z"/>
<path d="M1522 938 c-8 -8 -12 -51 -12 -128 0 -123 -6 -140 -46 -140 -18 0
-41 27 -106 122 -95 139 -124 160 -187 136 -56 -21 -71 -61 -71 -194 0 -116
10 -144 45 -130 12 4 15 26 15 113 0 131 5 151 37 159 32 8 40 0 122 -132 79
-127 110 -151 174 -133 63 17 77 52 77 195 0 111 -7 144 -30 144 -3 0 -11 -5
-18 -12z"/>
<path d="M758 931 c-73 -24 -118 -85 -118 -161 0 -127 132 -210 239 -149 48
26 77 64 59 75 -6 4 -17 -1 -24 -11 -39 -53 -124 -71 -185 -40 -92 48 -90 188
3 245 74 45 183 1 203 -82 l7 -27 -86 -3 c-120 -4 -111 -23 12 -23 l97 0 -1
37 c-3 91 -116 167 -206 139z"/>
<path d="M1022 932 c-9 -7 -12 -47 -10 -168 l3 -159 25 0 25 0 0 165 c0 139
-2 165 -15 167 -8 2 -21 -1 -28 -5z"/>
<path d="M2290 880 c-15 -15 -20 -33 -20 -70 l0 -50 48 0 c58 0 83 21 84 71 2
60 -70 91 -112 49z"/>
<path d="M2599 885 c-38 -21 -62 -63 -63 -111 -1 -52 25 -91 78 -118 32 -16
44 -17 76 -7 75 22 116 104 86 174 -27 66 -114 96 -177 62z"/>
<path d="M2942 884 c-18 -12 -22 -25 -22 -70 l0 -54 49 0 c42 0 53 4 70 26 27
35 26 59 -4 89 -28 29 -61 32 -93 9z"/>
<path d="M3018 259 c-15 -8 -18 -25 -18 -104 0 -123 18 -125 22 -3 4 112 20
123 54 38 18 -45 26 -55 45 -55 19 0 30 12 51 55 40 82 52 73 56 -38 4 -122
22 -120 22 3 0 83 -2 96 -19 105 -31 16 -52 1 -77 -57 -13 -29 -26 -53 -29
-53 -3 0 -15 21 -26 48 -18 42 -43 73 -58 72 -3 0 -14 -5 -23 -11z"/>
<path d="M3311 244 c-17 -22 -21 -41 -21 -105 0 -46 4 -79 10 -79 6 0 10 14
10 30 0 30 1 30 55 30 54 0 55 0 55 -30 0 -16 5 -30 10 -30 16 0 12 137 -5
169 -25 49 -82 56 -114 15z m94 -18 c9 -14 15 -37 13 -53 -3 -26 -6 -28 -55
-31 l-53 -3 0 43 c0 24 5 49 12 56 21 21 66 14 83 -12z"/>
<path d="M3584 224 l-31 -44 -27 40 c-14 22 -31 40 -37 40 -12 0 -6 -11 27
-57 13 -17 24 -35 24 -38 0 -4 -13 -26 -30 -50 -32 -46 -35 -55 -21 -55 4 0
20 18 35 40 14 22 30 40 34 40 4 0 18 -18 32 -40 14 -22 29 -40 33 -40 5 0 -1
15 -13 33 -45 68 -45 71 -11 120 17 25 28 48 23 51 -4 2 -21 -16 -38 -40z"/>
</g>
</svg>
