<?xml version="1.0" standalone="no"?>
<!DOCTYPE svg PUBLIC "-//W3C//DTD SVG 20010904//EN"
 "http://www.w3.org/TR/2001/REC-SVG-20010904/DTD/svg10.dtd">
<svg version="1.0" xmlns="http://www.w3.org/2000/svg"
 width="30.000000pt" height="30.000000pt" viewBox="0 0 30.000000 30.000000"
 preserveAspectRatio="xMidYMid meet">

<g transform="translate(0.000000,30.000000) scale(0.100000,-0.100000)"
fill="#FFFFFF" stroke="none">
<path d="M105 261 c-44 -20 -70 -60 -70 -111 0 -27 6 -55 12 -61 19 -19 24 -6
11 27 -20 55 11 116 67 130 77 19 145 -55 117 -130 -13 -33 -8 -46 11 -27 6 6
12 34 12 61 0 42 -5 54 -31 81 -33 33 -92 46 -129 30z"/>
<path d="M140 114 c0 -49 -2 -55 -15 -44 -28 23 -29 0 -2 -28 l27 -27 27 27
c27 28 26 51 -2 28 -13 -11 -15 -5 -15 44 0 31 -4 56 -10 56 -5 0 -10 -25 -10
-56z"/>
</g>
</svg>
