<?xml version="1.0" standalone="no"?>
<!DOCTYPE svg PUBLIC "-//W3C//DTD SVG 20010904//EN"
 "http://www.w3.org/TR/2001/REC-SVG-20010904/DTD/svg10.dtd">
<svg version="1.0" xmlns="http://www.w3.org/2000/svg"
 width="50.000000pt" height="50.000000pt" viewBox="0 0 50.000000 50.000000"
 preserveAspectRatio="xMidYMid meet">

<g transform="translate(0.000000,50.000000) scale(0.100000,-0.100000)"
fill="#FFFFFF" stroke="none">
<path d="M59 441 c-20 -20 -29 -39 -29 -61 0 -43 47 -90 90 -90 43 0 90 47 90
90 0 43 -47 90 -90 90 -22 0 -41 -9 -61 -29z m108 -13 c29 -27 29 -65 1 -95
-27 -29 -65 -29 -95 -1 -29 27 -29 65 -1 95 27 29 65 29 95 1z"/>
<path d="M319 441 c-39 -40 -39 -82 0 -122 20 -20 39 -29 61 -29 43 0 90 47
90 90 0 43 -47 90 -90 90 -22 0 -41 -9 -61 -29z m124 -94 c-3 -5 -27 13 -54
39 -26 26 -46 52 -42 57 3 5 27 -13 54 -39 26 -26 46 -52 42 -57z m-21 86 c30
-36 30 -47 0 -19 -18 17 -32 31 -32 33 0 9 19 1 32 -14z m-9 -116 c-3 -5 -27
13 -54 39 -26 26 -46 52 -42 57 3 5 27 -13 54 -39 26 -26 46 -52 42 -57z m-67
21 c28 -30 17 -30 -18 0 -16 13 -24 32 -15 32 2 0 16 -14 33 -32z"/>
<path d="M59 181 c-20 -20 -29 -39 -29 -61 0 -43 47 -90 90 -90 43 0 90 47 90
90 0 43 -47 90 -90 90 -22 0 -41 -9 -61 -29z m81 -1 c0 -5 7 -10 15 -10 8 0
15 -7 15 -15 0 -8 5 -15 10 -15 6 0 10 -9 10 -20 0 -11 -4 -20 -10 -20 -5 0
-10 -7 -10 -15 0 -8 -7 -15 -15 -15 -8 0 -15 -4 -15 -10 0 -5 -9 -10 -20 -10
-11 0 -20 5 -20 10 0 6 -7 10 -15 10 -8 0 -15 7 -15 15 0 8 -4 15 -10 15 -5 0
-10 9 -10 20 0 11 5 20 10 20 6 0 10 7 10 15 0 8 7 15 15 15 8 0 15 5 15 10 0
6 9 10 20 10 11 0 20 -4 20 -10z"/>
<path d="M110 150 c0 -5 5 -10 10 -10 6 0 10 5 10 10 0 6 -4 10 -10 10 -5 0
-10 -4 -10 -10z"/>
<path d="M80 120 c0 -5 5 -10 10 -10 6 0 10 5 10 10 0 6 -4 10 -10 10 -5 0
-10 -4 -10 -10z"/>
<path d="M140 120 c0 -5 5 -10 10 -10 6 0 10 5 10 10 0 6 -4 10 -10 10 -5 0
-10 -4 -10 -10z"/>
<path d="M110 90 c0 -5 5 -10 10 -10 6 0 10 5 10 10 0 6 -4 10 -10 10 -5 0
-10 -4 -10 -10z"/>
<path d="M319 181 c-39 -40 -39 -82 0 -122 20 -20 39 -29 61 -29 43 0 90 47
90 90 0 43 -47 90 -90 90 -22 0 -41 -9 -61 -29z m71 -1 c0 -5 -4 -10 -10 -10
-5 0 -10 5 -10 10 0 6 5 10 10 10 6 0 10 -4 10 -10z m-33 -36 c-2 -2 -12 -2
-21 2 -13 5 -14 9 -5 21 11 12 14 12 22 -2 5 -9 7 -19 4 -21z m68 3 c-20 -11
-27 -5 -19 17 5 13 9 14 21 5 12 -11 12 -14 -2 -22z m-95 -27 c0 -5 -4 -10
-10 -10 -5 0 -10 5 -10 10 0 6 5 10 10 10 6 0 10 -4 10 -10z m60 0 c0 -5 -4
-10 -10 -10 -5 0 -10 5 -10 10 0 6 5 10 10 10 6 0 10 -4 10 -10z m60 0 c0 -5
-4 -10 -10 -10 -5 0 -10 5 -10 10 0 6 5 10 10 10 6 0 10 -4 10 -10z m-94 -36
c-3 -9 -6 -18 -6 -21 0 -3 -7 0 -15 7 -13 11 -13 15 -3 21 21 13 31 10 24 -7z
m72 7 c10 -6 10 -10 -3 -21 -8 -7 -15 -10 -15 -7 0 3 -3 12 -6 21 -7 17 3 20
24 7z m-38 -31 c0 -5 -4 -10 -10 -10 -5 0 -10 5 -10 10 0 6 5 10 10 10 6 0 10
-4 10 -10z"/>
</g>
</svg>
