<?xml version="1.0" standalone="no"?>
<!DOCTYPE svg PUBLIC "-//W3C//DTD SVG 20010904//EN"
 "http://www.w3.org/TR/2001/REC-SVG-20010904/DTD/svg10.dtd">
<svg version="1.0" xmlns="http://www.w3.org/2000/svg"
 width="580.000000pt" height="387.000000pt" viewBox="0 0 580.000000 387.000000"
 preserveAspectRatio="xMidYMid meet">

<g transform="translate(0.000000,387.000000) scale(0.100000,-0.100000)"
fill="#000000" stroke="none">
<path d="M3490 3238 c-319 -661 -701 -1491 -923 -2008 -25 -58 -97 -226 -161
-374 -173 -402 -151 -366 104 169 117 245 162 340 255 540 48 105 92 194 96
199 6 6 20 0 36 -16 16 -14 61 -44 101 -68 41 -23 88 -55 105 -70 30 -27 32
-33 32 -98 0 -85 -12 -102 -70 -102 -59 0 -75 21 -75 98 l0 62 -76 0 -76 0 4
-89 c3 -84 5 -92 33 -121 41 -43 118 -64 215 -58 91 5 145 29 177 77 20 29 23
47 23 128 0 52 -5 104 -11 116 -22 43 -65 79 -148 125 -111 62 -141 97 -141
162 0 61 24 90 73 90 55 0 70 -19 75 -94 l4 -66 74 0 74 0 0 73 c0 48 -6 83
-18 107 -23 48 -89 79 -181 87 -39 3 -71 7 -71 9 0 2 40 93 89 201 166 370
473 1085 468 1090 -2 2 -41 -75 -87 -169z"/>
<path d="M2460 2572 c0 -43 153 -758 164 -770 3 -3 36 -1 73 4 l67 9 84 185
c46 102 124 271 173 377 49 105 89 195 89 198 0 3 -35 5 -77 3 l-77 -3 -93
-245 c-51 -135 -101 -266 -110 -292 -10 -27 -20 -48 -23 -48 -4 0 -31 132 -61
293 l-54 292 -78 3 c-42 2 -77 -1 -77 -6z"/>
</g>
</svg>
